<svg version="1.1" xmlns="http://www.w3.org/2000/svg" xmlns:xlink="http://www.w3.org/1999/xlink" viewBox="0 0 172 172"><g fill="none" fill-rule="nonzero" stroke="none" stroke-width="1" stroke-linecap="butt" stroke-linejoin="miter" stroke-miterlimit="10" stroke-dasharray="" stroke-dashoffset="0" font-family="none" font-weight="none" font-size="none" text-anchor="none" style="mix-blend-mode: normal"><path d="M0,172v-172h172v172z" fill="none"></path><g fill="#042442"><path d="M86,14.33333c-39.517,0 -71.66667,32.14967 -71.66667,71.66667c0,39.517 32.14967,71.66667 71.66667,71.66667c39.517,0 71.66667,-32.14967 71.66667,-71.66667c0,-11.49892 -2.78766,-22.3343 -7.62158,-31.97705l-8.04151,8.0415c3.15333,7.34942 4.91309,15.43947 4.91309,23.93555c0,33.59017 -27.3265,60.91667 -60.91667,60.91667c-33.59017,0 -60.91667,-27.3265 -60.91667,-60.91667c0,-33.59017 27.3265,-60.91667 60.91667,-60.91667c15.9315,0 30.40665,6.19631 41.27132,16.24398l7.60059,-7.60059c-12.81758,-11.99342 -29.97699,-19.39339 -48.87191,-19.39339zM141.43669,39.36768c-1.39592,0.04068 -2.72121,0.62301 -3.69531,1.6237l-60.69971,60.69971l-14.11637,-14.11637c-1.34815,-1.40412 -3.35005,-1.96971 -5.23364,-1.47866c-1.88359,0.49105 -3.35456,1.96202 -3.84561,3.84561c-0.49105,1.88359 0.07455,3.88549 1.47866,5.23364l17.91667,17.91667c2.0991,2.09823 5.50149,2.09823 7.60059,0l64.5,-64.5c1.58706,-1.54566 2.06336,-3.90666 1.19966,-5.94673c-0.8637,-2.04007 -2.89048,-3.34134 -5.10493,-3.27756z"></path></g></g></svg>