<svg version="1.1" xmlns="http://www.w3.org/2000/svg" xmlns:xlink="http://www.w3.org/1999/xlink" viewBox="0 0 172 172"><g fill="none" fill-rule="nonzero" stroke="none" stroke-width="1" stroke-linecap="butt" stroke-linejoin="miter" stroke-miterlimit="10" stroke-dasharray="" stroke-dashoffset="0" font-family="none" font-weight="none" font-size="none" text-anchor="none" style="mix-blend-mode: normal"><path d="M0,172v-172h172v172z" fill="none"></path><g fill="#042442"><path d="M146.37917,47.55442l-65.53917,65.53917c-1.04633,1.04992 -2.42233,1.57308 -3.79833,1.57308c-1.376,0 -2.752,-0.52317 -3.80192,-1.57308l-17.91667,-17.91667c-2.09983,-2.09983 -2.09983,-5.50042 0,-7.60025c2.09983,-2.09983 5.50042,-2.09983 7.60025,0l14.11475,14.11475l62.81583,-62.81583c-13.14367,-15.007 -32.38617,-24.54225 -53.85392,-24.54225c-39.517,0 -71.66667,32.14967 -71.66667,71.66667c0,39.517 32.14967,71.66667 71.66667,71.66667c39.517,0 71.66667,-32.14967 71.66667,-71.66667c0,-14.15058 -4.17817,-27.32292 -11.2875,-38.44558z"></path></g></g></svg>