<svg version="1.1" xmlns="http://www.w3.org/2000/svg" xmlns:xlink="http://www.w3.org/1999/xlink" viewBox="0 0 172 172"><g fill="none" fill-rule="nonzero" stroke="none" stroke-width="1" stroke-linecap="butt" stroke-linejoin="miter" stroke-miterlimit="10" stroke-dasharray="" stroke-dashoffset="0" font-family="none" font-weight="none" font-size="none" text-anchor="none" style="mix-blend-mode: normal"><path d="M0,172v-172h172v172z" fill="none"></path><g svg-color="" fill="#042442"><path d="M80.84358,116.67692c-1.04992,1.04992 -2.42592,1.57308 -3.80192,1.57308c-1.376,0 -2.752,-0.52317 -3.80192,-1.57308l-17.91667,-17.91667c-2.09983,-2.09983 -2.09983,-5.50042 0,-7.60025c2.09983,-2.09983 5.50042,-2.09983 7.60025,0l14.11475,14.11475l71.853,-71.84942c-3.02433,-7.00542 -9.9975,-11.92533 -18.09942,-11.92533h-89.58333c-10.86467,0 -19.70833,8.84367 -19.70833,19.70833v89.58333c0,10.86467 8.84367,19.70833 19.70833,19.70833h89.58333c10.86467,0 19.70833,-8.84367 19.70833,-19.70833v-83.77475z"></path></g></g></svg>