<svg version="1.1" xmlns="http://www.w3.org/2000/svg" xmlns:xlink="http://www.w3.org/1999/xlink" viewBox="0 0 172 172"><g fill="none" fill-rule="nonzero" stroke="none" stroke-width="1" stroke-linecap="butt" stroke-linejoin="miter" stroke-miterlimit="10" stroke-dasharray="" stroke-dashoffset="0" font-family="none" font-weight="none" font-size="none" text-anchor="none" style="mix-blend-mode: normal"><path d="M0,172v-172h172v172z" fill="none"></path><g fill="#042442"><path d="M41.20833,21.5c-10.82086,0 -19.70833,8.88748 -19.70833,19.70833v89.58333c0,10.82086 8.88748,19.70833 19.70833,19.70833h89.58333c10.82086,0 19.70833,-8.88748 19.70833,-19.70833v-89.58333c0,-10.82086 -8.88748,-19.70833 -19.70833,-19.70833zM41.20833,32.25h89.58333c5.01031,0 8.95833,3.94802 8.95833,8.95833v89.58333c0,5.01031 -3.94802,8.95833 -8.95833,8.95833h-89.58333c-5.01031,0 -8.95833,-3.94802 -8.95833,-8.95833v-89.58333c0,-5.01031 3.94802,-8.95833 8.95833,-8.95833z"></path></g></g></svg>