<svg version="1.1" xmlns="http://www.w3.org/2000/svg" xmlns:xlink="http://www.w3.org/1999/xlink" viewBox="0 0 172 172"><g fill="none" fill-rule="nonzero" stroke="none" stroke-width="1" stroke-linecap="butt" stroke-linejoin="miter" stroke-miterlimit="10" stroke-dasharray="" stroke-dashoffset="0" font-family="none" font-weight="none" font-size="none" text-anchor="none" style="mix-blend-mode: normal"><path d="M0,172v-172h172v172z" fill="none"></path><g fill="#042442"><path d="M41.20833,21.5c-10.86467,0 -19.70833,8.84367 -19.70833,19.70833v89.58333c0,10.86467 8.84367,19.70833 19.70833,19.70833h89.58333c10.86467,0 19.70833,-8.84367 19.70833,-19.70833v-73.6403l-10.75,10.75v62.8903c0,4.94142 -4.01692,8.95833 -8.95833,8.95833h-89.58333c-4.94142,0 -8.95833,-4.01692 -8.95833,-8.95833v-89.58333c0,-4.94142 4.01692,-8.95833 8.95833,-8.95833h89.58333c2.5155,0 4.78039,1.05249 6.41081,2.72949l7.60059,-7.60059c-3.57617,-3.62275 -8.53248,-5.87891 -14.01139,-5.87891zM148.60335,35.78434c-1.39592,0.04068 -2.72121,0.62301 -3.69531,1.6237l-67.86637,67.86637l-14.11637,-14.11637c-1.34815,-1.40412 -3.35005,-1.96971 -5.23364,-1.47866c-1.88359,0.49105 -3.35456,1.96202 -3.84561,3.84561c-0.49105,1.88359 0.07455,3.88549 1.47866,5.23364l17.91667,17.91667c2.0991,2.09823 5.50149,2.09823 7.60059,0l71.66667,-71.66667c1.58706,-1.54566 2.06336,-3.90666 1.19966,-5.94672c-0.8637,-2.04007 -2.89048,-3.34134 -5.10493,-3.27756z"></path></g></g></svg>